<?xml version="1.0" standalone="no"?>
<!DOCTYPE svg PUBLIC "-//W3C//DTD SVG 1.1//EN"
"http://www.w3.org/Graphics/SVG/1.1/DTD/svg11.dtd"><svg id="svg" version="1.1" width="1071" height="298" xmlns="http://www.w3.org/2000/svg"><path d="M131.000 10.526 C 130.175 10.688,126.125 11.360,122.000 12.020 C 80.490 18.666,40.881 48.449,21.028 87.947 C 3.661 122.497,1.779 164.411,15.942 201.187 C 33.301 246.261,72.886 279.126,121.107 288.500 C 169.222 297.854,221.694 279.408,253.385 242.000 C 269.402 223.093,279.594 202.100,285.184 176.500 C 286.986 168.250,286.961 131.576,285.148 123.500 C 271.716 63.661,226.971 20.682,168.500 11.456 C 160.810 10.243,135.633 9.618,131.000 10.526 M180.500 20.875 C 220.545 31.369,254.616 61.060,270.346 99.172 C 277.673 116.923,281.760 140.396,280.502 157.500 C 278.050 190.852,264.819 220.849,242.500 243.661 C 224.027 262.542,200.815 275.431,175.000 281.139 C 161.141 284.204,134.069 284.479,121.305 281.685 C 89.475 274.717,62.586 258.490,43.313 234.620 C 13.439 197.618,5.322 149.124,21.515 104.388 C 37.532 60.141,76.545 27.567,124.500 18.402 C 129.266 17.491,137.403 17.170,150.000 17.397 C 166.931 17.702,169.517 17.997,180.500 20.875 M1013.971 20.684 C 1016.927 26.200,1014.495 32.956,1005.070 45.407 C 1002.326 49.033,1000.329 52.000,1000.634 52.000 C 1002.706 52.000,1024.532 40.139,1026.079 38.173 C 1028.917 34.564,1028.504 30.643,1024.845 26.476 C 1021.962 23.193,1013.939 17.000,1012.568 17.000 C 1012.253 17.000,1012.885 18.658,1013.971 20.684 M123.356 27.487 C 123.463 29.344,123.944 29.851,125.250 29.487 C 126.213 29.219,127.900 28.745,129.000 28.433 C 130.100 28.121,131.000 27.430,131.000 26.897 C 131.000 26.312,130.201 26.357,128.976 27.013 C 127.411 27.851,126.603 27.745,125.405 26.548 C 123.352 24.495,123.187 24.571,123.356 27.487 M180.000 28.000 C 180.000 28.550,180.450 29.000,181.000 29.000 C 181.550 29.000,182.000 28.550,182.000 28.000 C 182.000 27.450,181.550 27.000,181.000 27.000 C 180.450 27.000,180.000 27.450,180.000 28.000 M174.750 29.162 C 173.238 29.715,172.000 30.579,172.000 31.083 C 172.000 32.555,173.600 32.149,176.139 30.033 C 178.791 27.824,178.652 27.737,174.750 29.162 M388.000 29.366 C 388.000 29.692,389.748 30.851,391.885 31.942 C 396.984 34.543,401.601 40.968,404.036 48.851 C 406.387 56.463,406.524 64.085,404.500 74.662 C 403.501 79.885,403.000 88.726,403.000 101.162 C 403.000 113.598,402.500 122.439,401.500 127.662 C 400.675 131.973,400.000 137.646,400.000 140.270 C 400.000 146.109,397.223 150.866,389.838 157.678 C 386.963 160.330,381.211 165.713,377.055 169.640 C 364.048 181.933,359.939 183.863,355.000 180.000 C 351.829 177.519,350.336 177.503,349.035 179.934 C 345.239 187.028,354.090 200.000,362.727 200.000 C 365.359 200.000,368.067 196.773,372.374 188.500 C 374.379 184.650,378.889 178.125,382.397 174.000 C 385.905 169.875,390.094 164.250,391.707 161.500 C 395.168 155.600,398.000 154.355,398.000 158.736 C 398.000 162.005,399.302 163.899,403.215 166.320 C 406.788 168.531,409.290 168.442,411.476 166.026 C 413.020 164.320,413.167 162.955,412.558 155.972 C 412.170 151.528,410.771 144.204,409.448 139.696 C 407.414 132.766,407.039 129.316,407.021 117.360 C 406.992 98.156,409.197 87.608,416.221 73.333 C 421.129 63.359,421.497 62.102,421.461 55.451 C 421.427 49.447,420.898 47.236,418.166 41.685 C 413.954 33.130,411.458 31.426,402.000 30.649 C 397.875 30.310,393.038 29.749,391.250 29.403 C 389.463 29.056,388.000 29.040,388.000 29.366 M128.000 33.000 C 128.000 33.550,128.450 34.000,129.000 34.000 C 129.550 34.000,130.000 33.550,130.000 33.000 C 130.000 32.450,129.550 32.000,129.000 32.000 C 128.450 32.000,128.000 32.450,128.000 33.000 M640.000 33.660 C 640.000 34.022,642.475 36.914,645.500 40.085 C 654.432 49.450,653.278 55.265,641.046 62.528 C 638.292 64.162,636.031 65.859,636.020 66.298 C 635.997 67.230,643.046 66.313,646.756 64.903 C 648.160 64.369,651.888 62.340,655.040 60.394 C 659.260 57.790,661.660 56.941,664.136 57.178 C 668.516 57.597,668.503 59.745,664.102 62.710 C 662.233 63.970,660.929 65.000,661.203 65.000 C 662.405 65.000,669.012 62.504,674.981 59.793 C 678.545 58.175,683.720 56.599,686.481 56.292 C 689.241 55.984,692.291 55.044,693.258 54.204 C 694.861 52.810,694.878 52.522,693.443 50.937 C 690.808 48.025,685.381 47.578,681.374 49.942 C 678.845 51.434,676.149 52.000,671.572 52.000 L 665.258 52.000 664.600 47.043 C 664.238 44.316,663.264 41.407,662.435 40.578 C 661.606 39.749,656.664 37.705,651.452 36.035 C 641.618 32.885,640.000 32.550,640.000 33.660 M121.629 35.523 C 121.153 36.766,121.409 36.851,123.023 35.988 C 125.341 34.747,125.560 34.000,123.607 34.000 C 122.841 34.000,121.951 34.685,121.629 35.523 M178.000 35.941 C 178.000 38.356,178.556 38.599,179.349 36.532 C 179.659 35.725,179.482 34.798,178.956 34.473 C 178.430 34.148,178.000 34.809,178.000 35.941 M908.357 40.839 C 908.153 50.427,897.674 74.862,890.714 81.981 C 886.922 85.859,881.959 85.979,871.433 82.446 C 867.249 81.041,863.425 80.029,862.937 80.196 C 861.525 80.680,867.009 87.053,869.728 88.087 C 871.084 88.602,872.432 89.937,872.724 91.052 C 873.016 92.167,874.547 93.749,876.127 94.566 C 882.094 97.652,880.089 101.918,863.466 121.500 C 849.299 138.190,838.107 148.155,826.500 154.415 C 819.983 157.930,822.002 157.294,835.933 151.444 C 851.028 145.105,860.513 138.699,871.781 127.230 C 881.006 117.841,881.081 117.791,884.092 119.038 C 887.680 120.524,890.354 123.868,896.057 134.000 C 901.608 143.864,905.102 148.201,909.329 150.478 L 912.799 152.347 915.888 149.748 C 917.587 148.318,921.403 146.443,924.369 145.581 C 927.335 144.719,930.828 143.119,932.131 142.026 L 934.500 140.038 924.902 140.164 C 916.231 140.278,914.830 140.030,910.402 137.597 C 907.706 136.116,902.365 132.004,898.534 128.460 C 894.702 124.916,889.640 120.798,887.284 119.309 C 882.419 116.234,881.932 114.092,885.051 109.500 C 886.172 107.850,888.825 103.572,890.946 99.994 C 896.046 91.392,897.845 89.930,905.252 88.369 C 915.346 86.242,930.000 80.936,930.000 79.408 C 930.000 77.912,925.683 76.441,922.500 76.853 C 921.400 76.995,917.672 78.028,914.214 79.149 C 910.757 80.270,907.270 80.934,906.464 80.625 C 904.173 79.745,904.731 75.988,908.042 70.000 C 917.017 53.771,917.939 48.449,913.098 40.815 C 911.502 38.298,909.809 36.000,909.337 35.708 C 908.865 35.416,908.424 37.725,908.357 40.839 M174.070 36.917 C 174.032 37.696,173.704 38.037,173.342 37.675 C 172.360 36.693,169.991 39.003,170.063 40.872 C 170.104 41.911,170.527 41.595,171.232 40.000 L 172.337 37.500 172.919 40.736 C 173.486 43.897,173.525 43.918,174.574 41.660 C 175.165 40.388,175.309 38.482,174.894 37.424 C 174.445 36.278,174.112 36.073,174.070 36.917 M166.000 37.882 C 166.000 38.432,166.450 39.160,167.000 39.500 C 167.550 39.840,168.000 39.668,168.000 39.118 C 168.000 38.568,167.550 37.840,167.000 37.500 C 166.450 37.160,166.000 37.332,166.000 37.882 M803.207 41.333 C 800.618 43.716,793.325 48.376,787.000 51.689 C 780.675 55.002,770.125 61.714,763.556 66.606 L 751.612 75.500 758.812 75.794 C 767.115 76.133,771.523 74.529,775.789 69.616 C 782.026 62.434,793.975 51.342,797.726 49.253 C 801.263 47.284,801.913 47.191,802.999 48.498 C 804.481 50.285,803.197 52.570,796.992 59.186 C 793.527 62.882,792.975 64.073,793.141 67.500 C 793.419 73.255,792.359 75.615,788.396 78.064 C 783.397 81.154,784.908 81.582,790.651 78.704 C 793.318 77.367,797.188 75.727,799.250 75.059 C 803.782 73.592,803.998 71.798,800.000 68.842 C 795.399 65.440,796.084 63.092,803.415 57.144 C 806.944 54.282,811.305 49.641,813.107 46.833 L 816.384 41.727 813.636 39.363 C 812.125 38.064,810.219 37.000,809.401 37.000 C 808.584 37.000,805.796 38.950,803.207 41.333 M124.690 42.250 C 123.160 46.280,123.165 46.389,124.788 44.361 L 126.500 42.222 129.000 45.116 C 130.888 47.302,132.054 47.858,133.762 47.386 C 135.838 46.812,135.694 46.598,132.012 44.776 C 128.998 43.285,128.000 42.195,128.000 40.395 C 128.000 36.697,126.473 37.553,124.690 42.250 M1048.000 42.543 C 1044.975 43.298,1041.077 43.934,1039.339 43.958 C 1036.231 43.999,1030.333 46.334,1010.518 55.364 C 1000.779 59.802,1000.487 59.868,998.518 58.084 C 996.645 56.387,991.000 54.652,991.000 55.774 C 991.000 56.047,992.182 57.366,993.626 58.705 C 995.960 60.867,996.183 61.646,995.629 65.688 C 994.736 72.204,990.146 82.000,987.986 82.000 C 985.475 82.000,984.287 80.174,981.402 71.878 C 979.991 67.820,977.554 61.800,975.986 58.500 C 973.105 52.439,967.599 46.067,966.334 47.332 C 965.957 47.710,967.618 52.362,970.026 57.672 C 973.703 65.779,974.492 68.647,974.952 75.579 C 975.253 80.119,975.795 84.129,976.156 84.490 C 976.517 84.850,978.512 84.676,980.590 84.103 C 984.717 82.963,987.001 83.950,986.999 86.872 C 986.998 87.768,984.554 92.319,981.569 96.987 C 978.583 101.655,976.337 105.670,976.577 105.910 C 976.817 106.150,979.768 103.344,983.136 99.673 C 986.591 95.908,990.091 93.000,991.169 93.000 C 994.322 93.000,1001.022 96.926,1001.907 99.291 C 1004.728 106.833,1003.933 108.301,995.531 111.073 C 986.528 114.043,966.664 126.930,955.272 137.192 C 950.595 141.405,946.000 142.362,946.000 139.122 C 946.000 138.089,946.675 135.629,947.500 133.654 C 949.694 128.404,949.282 127.941,946.474 132.500 C 944.094 136.365,943.284 141.970,944.607 145.418 C 945.687 148.233,949.215 147.110,953.409 142.617 C 959.515 136.074,983.826 117.000,986.059 117.000 C 986.706 117.000,991.198 115.216,996.042 113.035 C 1002.580 110.091,1006.070 109.094,1009.593 109.165 C 1013.678 109.247,1014.698 108.845,1016.919 106.276 C 1018.994 103.877,1020.775 103.076,1026.000 102.196 C 1039.479 99.923,1044.366 99.738,1046.500 101.420 C 1048.477 102.977,1048.468 103.024,1045.741 105.458 C 1044.019 106.994,1038.005 109.469,1029.741 112.041 C 1015.898 116.350,1003.000 121.701,1003.000 123.135 C 1003.000 123.597,1005.376 122.924,1008.281 121.639 C 1012.401 119.817,1016.014 119.188,1024.719 118.775 C 1034.410 118.316,1036.706 117.852,1042.188 115.248 C 1047.996 112.489,1055.978 105.770,1058.059 101.888 C 1060.648 97.056,1052.234 95.377,1040.369 98.358 C 1037.141 99.169,1032.138 100.137,1029.250 100.510 C 1024.185 101.164,1024.000 101.103,1024.000 98.785 C 1024.000 93.671,1039.706 71.912,1049.334 63.686 C 1055.914 58.064,1058.000 53.952,1058.000 46.599 C 1058.000 40.168,1057.815 40.093,1048.000 42.543 M76.290 45.800 C 75.414 46.356,75.608 46.899,76.994 47.764 C 79.001 49.017,80.648 47.858,79.500 46.000 C 78.765 44.811,77.928 44.759,76.290 45.800 M1051.686 46.541 C 1051.874 47.114,1050.020 50.489,1047.566 54.041 C 1045.113 57.594,1041.201 63.875,1038.874 68.000 C 1029.899 83.907,1023.968 92.701,1018.718 97.886 C 1015.719 100.849,1012.506 103.697,1011.579 104.216 C 1007.861 106.297,1002.069 98.845,1003.371 93.656 C 1003.817 91.882,1006.503 89.941,1013.898 86.054 C 1025.846 79.772,1027.560 77.310,1024.086 71.421 C 1022.909 69.427,1020.159 65.676,1017.974 63.084 C 1015.788 60.492,1014.000 57.696,1014.000 56.870 C 1014.000 51.367,1050.030 41.492,1051.686 46.541 M170.000 46.855 C 170.000 48.693,174.819 51.289,176.742 50.487 C 178.212 49.874,178.039 49.621,175.686 48.946 C 174.138 48.502,172.226 47.602,171.436 46.947 C 170.448 46.127,170.000 46.098,170.000 46.855 M80.388 49.531 C 79.475 50.923,78.926 52.260,79.167 52.500 C 79.408 52.741,80.394 51.602,81.359 49.969 C 83.495 46.354,82.703 45.997,80.388 49.531 M452.594 51.058 C 450.218 56.995,448.856 70.386,448.785 88.500 C 448.753 96.750,448.322 104.288,447.828 105.251 C 447.333 106.215,444.726 108.119,442.035 109.482 C 437.228 111.918,433.750 115.078,437.429 113.666 C 441.972 111.922,444.140 111.862,446.507 113.413 C 450.128 115.785,449.714 120.342,444.614 134.250 C 442.244 140.713,440.677 146.000,441.132 146.000 C 441.587 146.000,445.126 142.820,448.997 138.934 C 456.277 131.625,461.974 123.059,461.991 119.399 C 462.010 114.999,464.091 111.327,467.482 109.710 C 472.540 107.298,489.141 86.551,487.261 84.991 C 486.843 84.644,483.575 83.149,480.000 81.671 C 469.734 77.424,467.776 75.424,467.537 68.939 C 467.295 62.368,465.571 58.848,459.202 51.921 L 454.356 46.652 452.594 51.058 M81.331 53.170 C 79.442 56.366,79.341 57.075,80.549 58.670 C 81.852 60.389,81.941 60.348,82.012 58.000 C 82.080 55.767,82.314 55.927,84.204 59.500 C 85.393 61.748,86.514 62.927,86.762 62.192 C 87.006 61.473,86.372 59.945,85.353 58.796 C 84.012 57.285,83.845 56.587,84.750 56.271 C 85.438 56.030,86.000 55.394,86.000 54.858 C 86.000 54.321,85.581 54.141,85.068 54.458 C 84.555 54.775,83.993 53.789,83.818 52.267 L 83.500 49.500 81.331 53.170 M533.389 51.821 C 533.767 52.433,537.457 55.270,541.589 58.126 C 545.720 60.982,549.528 64.118,550.050 65.094 C 552.032 68.797,551.115 71.741,546.954 75.037 C 544.729 76.799,543.143 78.476,543.430 78.763 C 543.717 79.050,544.578 78.765,545.344 78.129 C 546.110 77.493,549.947 76.131,553.870 75.100 C 567.538 71.512,570.445 66.718,563.291 59.564 C 558.990 55.263,555.133 53.740,546.500 52.936 C 542.100 52.526,537.195 51.857,535.601 51.449 C 533.573 50.931,532.908 51.043,533.389 51.821 M132.000 54.893 C 132.000 57.425,128.879 58.556,127.416 56.554 C 125.743 54.266,122.712 54.516,123.462 56.882 C 124.279 59.453,120.989 60.705,119.340 58.450 C 117.819 56.370,115.510 57.041,115.504 59.566 C 115.499 61.768,112.115 62.804,110.971 60.953 C 109.925 59.261,106.890 60.549,107.594 62.385 C 107.922 63.239,107.313 64.297,106.131 64.930 C 104.525 65.789,103.916 65.673,103.185 64.366 C 102.024 62.291,99.658 63.585,100.278 65.956 C 100.533 66.932,99.934 68.184,98.906 68.827 C 97.444 69.740,96.893 69.631,96.137 68.281 C 95.339 66.854,94.946 66.800,93.584 67.930 C 92.482 68.845,92.287 69.640,92.964 70.456 C 93.625 71.253,93.563 72.037,92.776 72.824 C 91.240 74.360,89.276 74.324,88.746 72.750 C 88.419 71.777,87.954 71.807,86.650 72.883 C 85.322 73.979,85.224 74.564,86.173 75.709 C 87.116 76.845,87.066 77.346,85.936 78.061 C 84.054 79.251,83.258 79.226,82.470 77.951 C 82.028 77.236,81.370 77.278,80.399 78.084 C 79.293 79.001,79.238 79.582,80.152 80.683 C 81.750 82.609,78.637 86.037,76.883 84.283 C 75.372 82.772,72.771 84.973,74.118 86.623 C 75.744 88.616,73.974 91.210,71.426 90.571 C 68.668 89.879,67.353 91.515,69.036 93.544 C 70.630 95.464,68.667 97.987,66.101 97.316 C 65.022 97.034,64.028 97.485,63.669 98.419 C 63.336 99.289,63.530 100.000,64.101 100.000 C 64.672 100.000,64.994 101.013,64.816 102.250 C 64.583 103.875,63.896 104.439,62.343 104.279 C 59.763 104.013,58.464 106.601,60.582 107.786 C 62.557 108.891,61.354 112.000,58.952 112.000 C 56.605 112.000,55.446 113.846,56.887 115.287 C 57.499 115.899,58.000 117.262,58.000 118.317 C 58.000 119.720,57.481 120.098,56.065 119.727 C 53.574 119.076,52.419 121.855,54.537 123.403 C 56.554 124.878,55.437 128.000,52.893 128.000 C 50.648 128.000,50.345 130.811,52.500 131.638 C 54.785 132.515,54.386 136.000,52.000 136.000 C 50.667 136.000,50.000 136.667,50.000 138.000 C 50.000 139.111,50.667 140.000,51.500 140.000 C 53.743 140.000,53.314 143.685,51.000 144.290 C 48.414 144.966,48.414 147.614,51.000 148.290 C 53.589 148.967,53.589 152.033,51.000 152.710 C 49.893 153.000,49.000 154.074,49.000 155.117 C 49.000 156.333,49.708 157.000,51.000 157.000 C 52.333 157.000,53.000 157.667,53.000 159.000 C 53.000 160.111,52.333 161.000,51.500 161.000 C 50.667 161.000,50.000 161.889,50.000 163.000 C 50.000 164.333,50.667 165.000,52.000 165.000 C 54.376 165.000,54.790 168.483,52.517 169.355 C 50.490 170.133,51.741 173.000,54.107 173.000 C 56.376 173.000,56.749 176.775,54.563 177.614 C 52.632 178.355,53.755 181.000,56.000 181.000 C 58.365 181.000,59.536 184.120,57.582 185.214 C 55.418 186.425,56.796 189.000,59.607 189.000 C 61.299 189.000,62.000 189.562,62.000 190.917 C 62.000 191.971,61.469 193.010,60.820 193.227 C 58.794 193.902,60.695 196.892,62.801 196.342 C 65.115 195.737,66.562 198.618,64.931 200.583 C 63.338 202.502,64.742 204.103,67.426 203.429 C 69.074 203.016,69.926 203.364,70.422 204.657 C 70.804 205.654,70.641 206.620,70.057 206.814 C 68.697 207.268,68.688 209.689,70.044 210.527 C 70.618 210.882,71.683 210.678,72.411 210.074 C 74.393 208.429,76.721 211.427,75.036 213.456 C 73.388 215.443,74.644 217.120,77.311 216.494 C 78.515 216.211,80.146 216.400,80.936 216.914 C 82.143 217.699,82.157 218.106,81.028 219.466 C 79.156 221.722,81.214 223.898,83.458 222.035 C 85.481 220.356,88.302 222.474,87.482 225.057 C 86.811 227.169,88.734 228.666,90.215 227.185 C 91.907 225.493,95.085 227.973,93.948 230.097 C 92.833 232.181,95.886 233.795,97.142 231.784 C 98.220 230.056,101.610 232.152,101.223 234.307 C 100.852 236.380,102.769 237.437,104.417 236.069 C 106.321 234.489,109.186 235.840,108.502 237.994 C 108.120 239.197,108.584 239.919,109.972 240.282 C 111.299 240.630,112.000 240.327,112.000 239.406 C 112.000 238.633,112.563 238.007,113.250 238.015 C 115.366 238.041,117.294 239.716,116.565 240.895 C 116.184 241.511,116.622 242.302,117.538 242.653 C 118.453 243.004,119.548 242.732,119.971 242.047 C 121.049 240.302,124.558 241.222,124.234 243.165 C 124.084 244.063,124.848 244.988,125.984 245.286 C 127.241 245.614,128.000 245.324,128.000 244.513 C 128.000 243.799,128.563 243.007,129.250 242.754 C 131.312 241.996,133.000 243.045,133.000 245.083 C 133.000 247.585,135.618 247.570,136.273 245.065 C 136.638 243.667,137.365 243.283,138.889 243.681 C 140.050 243.985,141.000 244.856,141.000 245.617 C 141.000 246.377,141.900 247.000,143.000 247.000 C 144.111 247.000,145.000 246.333,145.000 245.500 C 145.000 244.667,145.889 244.000,147.000 244.000 C 148.111 244.000,149.000 244.667,149.000 245.500 C 149.000 247.743,152.685 247.314,153.290 245.000 C 153.577 243.900,154.572 243.000,155.500 243.000 C 156.428 243.000,157.423 243.900,157.710 245.000 C 157.998 246.100,158.518 246.993,158.867 246.985 C 160.173 246.953,161.500 245.449,161.500 244.000 C 161.500 243.175,162.513 242.356,163.750 242.180 C 165.263 241.966,166.000 242.375,166.000 243.430 C 166.000 244.362,166.860 245.000,168.117 245.000 C 169.741 245.000,170.112 244.535,169.710 243.000 C 169.423 241.900,169.558 241.000,170.012 241.000 C 170.465 241.000,171.548 240.727,172.418 240.393 C 173.474 239.988,174.000 240.345,174.000 241.466 C 174.000 242.529,174.643 243.022,175.750 242.807 C 176.713 242.620,177.501 241.581,177.502 240.497 C 177.504 238.232,180.861 237.157,182.029 239.047 C 183.208 240.955,185.927 239.437,185.342 237.199 C 184.661 234.596,187.837 233.394,189.475 235.635 C 191.017 237.744,193.353 236.458,192.677 233.874 C 192.030 231.400,195.723 229.116,196.615 231.439 C 197.068 232.621,197.642 232.727,199.165 231.912 C 200.595 231.146,200.846 230.520,200.088 229.606 C 199.360 228.729,199.401 227.999,200.224 227.176 C 201.733 225.667,203.722 225.667,204.226 227.177 C 204.989 229.468,207.175 226.834,206.556 224.369 C 205.857 221.583,208.186 220.080,210.380 221.900 C 211.407 222.752,212.054 222.640,213.053 221.436 C 214.147 220.118,214.138 219.703,213.000 219.000 C 210.971 217.746,213.674 214.762,216.132 215.542 C 218.906 216.422,220.164 215.235,218.790 213.035 C 217.172 210.445,219.512 207.350,221.709 209.173 C 222.843 210.115,223.338 210.071,224.019 208.969 C 224.522 208.155,224.483 207.082,223.926 206.410 C 222.274 204.421,223.997 201.782,226.531 202.418 C 229.129 203.070,230.921 200.291,228.501 199.362 C 226.227 198.489,228.589 194.735,230.942 195.482 C 233.326 196.238,234.719 192.982,232.534 191.759 C 230.503 190.622,232.331 186.806,234.507 187.641 C 235.376 187.975,236.266 187.470,236.671 186.414 C 237.074 185.364,236.870 184.457,236.180 184.227 C 234.158 183.553,234.797 180.000,236.941 180.000 C 239.638 180.000,240.641 177.942,238.653 176.488 C 236.294 174.764,236.609 173.099,239.500 172.000 C 242.206 170.971,242.948 168.000,240.500 168.000 C 239.667 168.000,239.000 167.111,239.000 166.000 C 239.000 164.667,239.667 164.000,241.000 164.000 C 242.333 164.000,243.000 163.333,243.000 162.000 C 243.000 160.889,242.333 160.000,241.500 160.000 C 239.212 160.000,239.646 155.905,242.000 155.290 C 244.505 154.635,244.611 152.393,242.167 151.754 C 239.790 151.132,239.790 147.868,242.167 147.246 C 244.713 146.580,244.572 143.000,242.000 143.000 C 240.667 143.000,240.000 142.333,240.000 141.000 C 240.000 139.889,240.667 139.000,241.500 139.000 C 242.333 139.000,243.000 138.111,243.000 137.000 C 243.000 135.667,242.333 135.000,241.000 135.000 C 238.600 135.000,238.196 131.246,240.500 130.362 C 242.741 129.502,242.315 128.070,239.500 127.000 C 236.815 125.979,235.945 122.000,238.406 122.000 C 239.292 122.000,239.630 121.302,239.320 120.116 C 239.002 118.900,238.198 118.397,237.052 118.697 C 234.585 119.342,233.484 116.098,235.635 114.525 C 237.649 113.053,236.644 111.000,233.910 111.000 C 231.547 111.000,230.175 108.128,232.000 107.000 C 233.942 105.800,232.468 103.065,230.199 103.658 C 227.885 104.263,226.438 101.382,228.069 99.417 C 229.546 97.638,228.272 95.779,226.057 96.482 C 223.700 97.230,221.012 94.229,222.960 93.025 C 224.961 91.788,223.411 88.735,221.146 89.454 C 218.726 90.222,215.954 87.265,217.942 86.036 C 219.884 84.836,218.110 82.738,215.689 83.371 C 212.896 84.101,210.583 82.208,212.074 80.411 C 212.678 79.683,212.882 78.618,212.527 78.044 C 211.727 76.749,209.284 76.674,208.833 77.930 C 208.650 78.442,207.624 78.215,206.554 77.426 C 205.065 76.330,204.883 75.717,205.780 74.820 C 207.515 73.085,205.265 70.535,203.380 72.100 C 201.405 73.739,198.669 72.374,199.276 70.052 C 199.806 68.027,196.834 65.998,196.186 67.943 C 195.696 69.412,193.465 69.265,192.146 67.676 C 191.346 66.712,191.358 66.042,192.191 65.209 C 193.791 63.609,190.442 62.389,188.614 63.905 C 186.682 65.508,183.809 64.178,184.500 62.000 C 185.253 59.627,182.121 58.453,180.597 60.537 C 179.132 62.540,175.631 61.405,176.476 59.201 C 176.802 58.353,176.490 57.293,175.784 56.845 C 173.843 55.614,173.000 55.833,173.000 57.570 C 173.000 58.632,172.273 59.028,170.750 58.796 C 169.462 58.599,168.630 57.860,168.803 57.068 C 169.089 55.757,167.381 54.049,165.750 54.015 C 165.338 54.007,165.000 54.675,165.000 55.500 C 165.000 56.433,164.056 57.000,162.500 57.000 C 160.667 57.000,160.000 56.467,160.000 55.000 C 160.000 53.889,159.333 53.000,158.500 53.000 C 157.675 53.000,157.000 53.675,157.000 54.500 C 157.000 55.433,156.056 56.000,154.500 56.000 C 152.944 56.000,152.000 55.433,152.000 54.500 C 152.000 53.667,151.111 53.000,150.000 53.000 C 148.889 53.000,148.000 53.667,148.000 54.500 C 148.000 55.333,147.111 56.000,146.000 56.000 C 144.889 56.000,144.000 55.333,144.000 54.500 C 144.000 53.667,143.111 53.000,142.000 53.000 C 140.889 53.000,140.000 53.667,140.000 54.500 C 140.000 55.433,139.056 56.000,137.500 56.000 C 135.944 56.000,135.000 55.433,135.000 54.500 C 135.000 53.675,134.325 53.000,133.500 53.000 C 132.675 53.000,132.000 53.852,132.000 54.893 M222.146 56.090 C 220.391 58.309,219.269 58.903,217.744 58.419 C 216.119 57.903,215.829 58.113,216.338 59.437 C 216.793 60.623,216.091 61.597,213.914 62.803 C 212.229 63.736,210.096 65.065,209.175 65.756 C 206.062 68.090,213.199 65.095,217.032 62.459 C 219.118 61.024,221.482 60.208,222.808 60.463 C 224.090 60.710,224.798 60.482,224.458 59.931 C 224.130 59.401,223.443 59.226,222.931 59.543 C 221.184 60.622,221.995 58.315,224.000 56.500 C 226.014 54.677,226.640 52.953,225.250 53.055 C 224.838 53.086,223.441 54.451,222.146 56.090 M87.500 57.000 C 87.840 57.550,88.568 58.000,89.118 58.000 C 89.668 58.000,89.840 57.550,89.500 57.000 C 89.160 56.450,88.432 56.000,87.882 56.000 C 87.332 56.000,87.160 56.450,87.500 57.000 M1014.313 60.961 C 1017.671 64.951,1020.386 72.328,1019.620 75.380 C 1018.676 79.139,1014.282 83.797,1008.612 87.049 C 1002.711 90.434,1000.090 90.703,997.045 88.238 C 994.041 85.805,995.321 82.918,1002.411 76.137 C 1008.672 70.150,1010.095 66.868,1007.619 64.131 C 1005.689 61.999,1005.512 59.364,1007.250 58.662 C 1010.052 57.532,1011.947 58.149,1014.313 60.961 M166.416 62.663 C 197.008 69.621,222.002 92.541,231.817 122.639 C 238.633 143.541,236.759 169.490,227.015 189.129 C 214.733 213.884,191.502 232.093,165.283 237.515 C 155.495 239.539,137.790 239.574,128.385 237.587 C 85.337 228.494,55.277 189.967,57.315 146.500 C 57.956 132.809,60.640 122.222,66.474 110.370 C 71.055 101.062,81.114 87.656,87.151 82.813 C 88.993 81.334,92.300 78.704,94.500 76.967 C 103.288 70.031,123.142 62.401,137.000 60.637 C 142.948 59.879,159.055 60.988,166.416 62.663 M82.081 62.849 C 80.769 65.300,80.725 66.000,81.883 66.000 C 82.794 66.000,84.218 61.884,83.541 61.208 C 83.333 60.999,82.676 61.738,82.081 62.849 M217.686 68.908 C 218.017 70.172,219.044 71.000,220.283 71.000 C 221.411 71.000,222.146 70.883,221.917 70.739 C 221.688 70.596,220.519 69.655,219.320 68.647 C 217.186 66.855,217.151 66.861,217.686 68.908 M956.000 74.788 C 956.000 75.413,956.866 78.304,957.925 81.212 C 958.984 84.121,960.052 88.434,960.299 90.798 C 960.574 93.424,961.478 95.648,962.624 96.516 C 965.032 98.339,965.527 98.330,967.429 96.429 C 969.905 93.952,969.300 90.770,965.142 84.405 C 961.095 78.210,956.000 72.850,956.000 74.788 M136.075 100.000 L 136.084 124.000 142.542 124.000 L 149.000 124.000 149.000 100.000 L 149.000 76.000 142.533 76.000 L 136.066 76.000 136.075 100.000 M152.000 100.000 L 152.000 124.115 156.250 123.807 L 160.500 123.500 160.500 100.000 L 160.500 76.500 156.250 76.193 L 152.000 75.885 152.000 100.000 M568.500 78.610 C 565.750 80.017,562.825 81.746,562.000 82.452 C 561.175 83.159,554.564 86.271,547.310 89.369 C 535.968 94.210,533.240 95.000,527.845 95.000 C 521.870 95.000,521.655 95.083,523.321 96.750 C 524.691 98.120,526.748 98.494,532.786 98.475 C 539.794 98.451,541.782 97.935,554.500 92.841 C 562.200 89.756,569.619 86.891,570.987 86.474 C 574.079 85.530,581.000 81.013,581.000 79.939 C 581.000 78.350,577.805 76.001,575.679 76.026 C 574.480 76.040,571.250 77.203,568.500 78.610 M664.500 77.228 C 662.557 78.363,662.568 78.413,664.905 78.971 C 668.985 79.946,669.776 82.458,667.131 86.037 C 664.340 89.811,664.657 90.333,668.791 88.773 C 671.297 87.827,672.718 87.858,675.660 88.922 C 679.127 90.176,679.487 90.117,681.184 88.021 C 682.183 86.787,683.000 85.334,683.000 84.790 C 683.000 82.905,677.167 78.367,673.228 77.186 C 668.369 75.731,667.055 75.737,664.500 77.228 M473.900 82.453 C 476.130 86.927,475.588 91.607,472.750 92.378 C 469.527 93.255,467.000 89.831,467.000 84.589 C 467.000 79.526,468.446 77.637,471.068 79.274 C 472.064 79.897,473.338 81.327,473.900 82.453 M638.405 83.237 C 636.300 85.567,631.965 89.162,628.772 91.226 C 623.334 94.741,619.840 99.173,621.331 100.665 C 621.692 101.026,625.478 99.703,629.744 97.726 C 634.262 95.632,640.003 93.834,643.496 93.420 C 649.804 92.671,651.637 91.342,657.991 82.908 C 660.214 79.958,660.268 79.693,658.491 80.451 C 646.045 85.766,641.262 86.076,642.413 81.491 C 642.757 80.121,642.857 79.000,642.635 79.000 C 642.414 79.000,640.510 80.907,638.405 83.237 M44.000 80.522 C 44.000 80.809,46.533 83.537,49.628 86.583 C 54.736 91.610,55.193 91.862,54.568 89.311 C 54.189 87.765,53.630 85.263,53.326 83.750 C 53.022 82.238,52.388 81.000,51.918 81.000 C 51.448 81.000,51.356 81.764,51.715 82.699 C 52.249 84.091,51.810 84.001,49.279 82.199 C 46.358 80.119,44.000 79.370,44.000 80.522 M130.099 83.709 C 126.753 85.967,122.985 87.219,115.927 88.418 C 110.837 89.282,103.000 94.472,103.000 96.978 C 103.000 98.874,103.669 99.008,113.750 99.125 C 125.925 99.268,133.265 99.068,133.751 98.582 C 133.933 98.401,133.951 94.463,133.791 89.833 L 133.500 81.413 130.099 83.709 M165.681 83.608 C 162.871 85.131,162.863 85.166,163.238 93.818 C 163.563 101.335,164.210 103.939,168.057 113.224 L 172.500 123.948 177.856 123.974 C 182.056 123.994,183.819 123.489,186.030 121.628 L 188.848 119.257 182.398 105.378 C 178.851 97.745,174.954 89.363,173.738 86.750 C 171.372 81.665,170.147 81.187,165.681 83.608 M36.544 84.928 C 36.229 85.438,36.878 86.144,37.986 86.496 C 39.095 86.847,41.179 88.680,42.619 90.568 C 44.059 92.455,45.712 94.000,46.293 94.000 C 46.874 94.000,46.370 92.958,45.174 91.686 C 43.978 90.413,43.000 88.863,43.000 88.242 C 43.000 87.118,39.205 84.000,37.837 84.000 C 37.441 84.000,36.860 84.418,36.544 84.928 M250.000 86.000 C 249.411 87.100,249.155 88.000,249.430 88.000 C 249.705 88.000,250.411 87.100,251.000 86.000 C 251.589 84.900,251.845 84.000,251.570 84.000 C 251.295 84.000,250.589 84.900,250.000 86.000 M789.500 87.842 C 782.305 91.249,773.395 99.151,768.966 106.052 C 765.304 111.759,763.398 111.973,763.720 106.641 C 763.841 104.638,763.616 103.015,763.220 103.034 C 761.894 103.097,754.922 126.446,754.961 130.693 C 754.983 133.093,755.897 136.407,757.099 138.443 C 760.747 144.626,761.624 143.240,762.591 129.765 C 763.114 122.477,763.815 119.482,765.878 115.731 C 769.144 109.791,771.534 109.748,771.425 115.631 C 771.378 118.168,770.490 120.907,769.068 122.905 L 766.786 126.110 771.026 130.024 C 775.641 134.285,775.443 132.997,773.372 145.250 C 772.772 148.801,772.879 149.000,775.394 149.000 C 778.797 149.000,780.000 146.012,780.000 137.555 C 780.000 131.604,780.257 130.910,784.465 125.490 C 789.423 119.106,789.362 117.273,784.104 114.554 C 781.041 112.970,780.000 109.910,780.000 102.494 C 780.000 98.806,780.467 97.881,783.494 95.573 C 788.944 91.416,795.076 88.970,797.199 90.106 C 799.587 91.384,799.479 94.065,796.525 106.891 C 794.892 113.984,794.045 120.674,794.036 126.569 C 794.012 141.527,791.604 147.508,786.537 145.199 C 783.178 143.668,783.341 144.787,787.055 148.750 C 790.192 152.097,793.685 152.915,795.800 150.800 C 796.504 150.096,797.004 146.689,797.009 142.550 C 797.022 131.826,799.641 112.213,801.945 105.593 C 803.075 102.345,804.000 98.153,804.000 96.278 C 804.000 94.403,804.486 91.961,805.080 90.851 C 805.926 89.269,805.785 88.420,804.425 86.917 C 801.933 84.163,796.568 84.496,789.500 87.842 M258.566 86.953 C 257.138 87.472,256.965 87.860,257.904 88.440 C 258.602 88.872,259.668 88.732,260.270 88.130 C 261.746 86.654,260.934 86.094,258.566 86.953 M250.998 88.546 C 248.589 89.880,248.578 89.930,250.691 89.965 C 251.896 89.984,253.179 89.520,253.541 88.933 C 254.607 87.209,253.673 87.066,250.998 88.546 M59.379 90.454 C 59.073 91.253,59.447 92.800,60.211 93.891 C 61.512 95.748,61.600 95.655,61.600 92.437 C 61.600 88.927,60.383 87.839,59.379 90.454 M259.813 93.683 C 260.534 93.972,261.397 93.936,261.729 93.604 C 262.061 93.272,261.471 93.036,260.417 93.079 C 259.252 93.127,259.015 93.364,259.813 93.683 M237.000 95.031 C 237.000 95.564,237.675 96.000,238.500 96.000 C 239.325 96.000,240.000 95.823,240.000 95.607 C 240.000 95.391,239.325 94.955,238.500 94.638 C 237.675 94.322,237.000 94.499,237.000 95.031 M50.112 98.346 C 50.777 99.805,51.961 101.000,52.744 101.000 C 54.701 101.000,53.856 98.981,51.146 97.181 C 48.946 95.720,48.926 95.743,50.112 98.346 M565.814 98.026 C 563.077 98.487,559.193 100.206,556.476 102.158 C 540.036 113.969,541.018 113.452,537.627 112.087 C 531.302 109.541,531.216 109.559,530.079 113.653 C 528.669 118.734,528.803 132.592,530.306 137.000 C 531.221 139.680,532.129 140.573,534.187 140.810 C 537.822 141.230,539.857 137.934,541.293 129.302 C 542.528 121.884,543.136 121.038,547.250 121.015 C 550.450 120.997,550.494 121.143,548.471 125.057 C 547.521 126.893,547.047 130.001,547.221 133.257 L 547.500 138.500 540.904 142.000 C 537.276 143.925,531.426 147.580,527.904 150.122 C 524.382 152.664,519.357 155.679,516.738 156.821 C 514.119 157.963,511.733 159.531,511.437 160.304 C 511.140 161.078,511.865 163.351,513.047 165.355 C 516.767 171.660,519.144 170.764,532.758 157.929 C 547.632 143.904,548.000 143.689,548.000 149.016 C 548.000 152.741,547.690 153.231,544.500 154.564 C 542.575 155.369,541.004 156.358,541.009 156.763 C 541.036 158.869,547.243 167.943,549.049 168.516 C 551.843 169.402,554.788 166.649,555.584 162.404 C 556.091 159.702,553.466 142.433,551.406 134.918 C 551.078 133.723,552.386 132.943,556.745 131.731 C 563.860 129.753,569.500 126.095,569.500 123.460 C 569.500 121.869,568.700 121.442,565.250 121.193 C 562.735 121.011,561.000 121.317,561.000 121.943 C 561.000 122.524,559.650 123.000,558.000 123.000 C 556.350 123.000,555.000 122.642,555.000 122.205 C 555.000 121.769,557.211 119.725,559.914 117.664 C 562.616 115.603,566.459 111.925,568.454 109.491 C 570.448 107.057,573.412 104.279,575.040 103.317 C 578.255 101.418,578.941 98.575,576.418 97.607 C 574.517 96.877,572.042 96.975,565.814 98.026 M44.250 99.496 C 42.579 101.394,42.673 102.063,44.513 101.357 C 45.345 101.037,46.695 101.332,47.513 102.011 C 49.093 103.322,49.450 102.337,48.393 99.582 C 47.648 97.640,45.916 97.604,44.250 99.496 M244.000 98.819 C 244.000 100.027,245.897 101.436,246.591 100.743 C 246.842 100.491,246.362 99.716,245.524 99.020 C 244.574 98.231,244.000 98.155,244.000 98.819 M252.813 98.683 C 253.534 98.972,254.397 98.936,254.729 98.604 C 255.061 98.272,254.471 98.036,253.417 98.079 C 252.252 98.127,252.015 98.364,252.813 98.683 M237.490 101.016 C 237.144 101.575,236.443 101.774,235.931 101.457 C 235.419 101.141,235.000 101.359,235.000 101.941 C 235.000 103.508,237.568 103.225,239.000 101.500 C 239.785 100.554,239.852 100.000,239.181 100.000 C 238.597 100.000,237.835 100.457,237.490 101.016 M51.000 105.250 C 51.000 107.221,50.438 109.060,49.750 109.338 C 49.063 109.615,49.533 109.878,50.795 109.921 C 52.910 109.994,53.037 109.704,52.413 106.250 C 51.508 101.245,51.000 100.886,51.000 105.250 M109.000 105.500 L 109.000 109.000 121.500 109.000 L 134.000 109.000 134.000 105.500 L 134.000 102.000 121.500 102.000 L 109.000 102.000 109.000 105.500 M634.571 109.100 C 637.360 112.071,640.883 116.377,642.400 118.669 C 645.456 123.287,645.234 124.495,640.376 129.718 C 638.953 131.248,636.853 134.525,635.711 137.000 C 631.805 145.460,625.139 151.600,612.000 158.841 C 601.019 164.892,606.928 164.347,619.589 158.142 C 631.088 152.505,638.469 146.947,642.000 141.265 C 645.078 136.313,649.478 133.051,652.141 133.747 C 655.231 134.555,657.050 138.235,658.204 146.012 C 659.085 151.948,659.923 153.988,663.158 158.080 C 665.299 160.789,668.920 164.241,671.206 165.753 C 674.798 168.128,676.183 168.457,681.431 168.182 C 694.040 167.522,696.644 167.546,701.878 168.373 C 709.277 169.542,707.941 167.881,697.660 163.127 C 693.172 161.051,686.800 157.156,683.500 154.471 C 671.667 144.842,659.467 133.711,657.659 130.893 L 655.819 128.024 659.019 125.330 C 665.571 119.818,666.810 117.362,665.557 112.372 C 664.807 109.383,659.823 103.993,657.827 104.013 C 657.097 104.020,655.150 106.816,653.500 110.225 C 651.850 113.635,649.687 116.892,648.693 117.462 C 646.797 118.551,646.032 117.894,638.500 108.707 C 636.808 106.644,634.192 104.753,632.500 104.373 C 629.564 103.712,629.607 103.812,634.571 109.100 M776.798 108.402 C 776.468 110.703,773.371 111.771,771.745 110.145 C 771.022 109.422,771.228 108.301,772.418 106.484 C 773.830 104.330,774.396 104.084,775.615 105.096 C 776.430 105.772,776.962 107.260,776.798 108.402 M730.483 109.250 C 730.877 110.488,732.090 114.875,733.179 119.000 C 735.547 127.974,737.259 130.209,741.449 129.799 C 743.753 129.573,744.579 128.941,744.824 127.218 C 745.285 123.967,741.737 117.281,736.615 111.750 C 731.822 106.573,729.304 105.547,730.483 109.250 M109.000 114.000 L 109.000 117.000 121.500 117.000 L 134.000 117.000 134.000 114.000 L 134.000 111.000 121.500 111.000 L 109.000 111.000 109.000 114.000 M961.067 115.066 C 959.270 117.303,958.007 119.340,958.260 119.593 C 958.676 120.009,962.525 115.390,964.380 112.250 C 965.868 109.730,964.250 111.106,961.067 115.066 M109.187 122.173 C 109.436 124.703,109.983 125.380,111.885 125.516 C 113.452 125.627,114.435 125.054,114.751 123.843 C 115.336 121.605,115.758 121.583,120.452 123.545 C 122.485 124.394,126.365 125.306,129.074 125.572 L 134.000 126.054 134.000 122.527 L 134.000 119.000 121.437 119.000 L 108.873 119.000 109.187 122.173 M356.500 122.591 C 363.971 129.157,366.494 130.814,370.740 131.944 C 374.055 132.826,375.125 133.651,375.646 135.727 C 376.551 139.333,374.536 146.504,371.003 152.250 C 369.397 154.863,368.469 157.000,368.942 157.000 C 370.347 157.000,382.139 147.874,387.135 142.921 C 395.259 134.866,394.725 127.035,385.746 122.561 C 380.031 119.713,377.896 119.494,371.513 121.101 C 368.022 121.980,365.854 121.879,360.756 120.601 C 352.129 118.437,351.897 118.545,356.500 122.591 M776.643 124.513 C 776.963 125.345,776.650 126.717,775.948 127.563 C 774.866 128.866,774.463 128.891,773.299 127.728 C 771.692 126.121,772.576 123.000,774.638 123.000 C 775.422 123.000,776.324 123.681,776.643 124.513 M110.686 147.750 C 106.945 159.713,101.806 175.931,99.264 183.790 C 94.700 197.904,94.611 198.073,92.001 197.500 C 89.842 197.026,89.142 197.394,88.179 199.507 C 86.633 202.899,86.434 202.556,91.020 204.391 C 95.686 206.258,103.559 206.523,104.594 204.848 C 105.259 203.771,104.528 202.979,100.581 200.500 C 99.180 199.620,100.320 195.249,110.060 164.143 C 116.149 144.696,120.891 128.159,120.597 127.393 C 119.025 123.295,117.090 127.270,110.686 147.750 M82.455 127.879 C 82.205 128.129,82.000 131.100,82.000 134.481 C 82.000 140.416,82.113 140.686,85.250 142.262 C 87.038 143.159,89.979 144.872,91.786 146.068 L 95.073 148.242 94.786 137.931 L 94.500 127.619 88.705 127.521 C 85.517 127.468,82.705 127.629,82.455 127.879 M97.383 128.190 C 97.108 128.635,96.995 133.504,97.132 139.010 C 97.398 149.667,97.824 150.550,103.565 152.364 C 105.456 152.962,105.940 151.985,109.319 140.759 C 111.348 134.016,113.006 128.275,113.004 128.000 C 112.997 127.148,97.913 127.331,97.383 128.190 M125.321 128.821 C 124.595 129.548,124.000 130.663,124.000 131.300 C 124.000 131.936,122.133 138.489,119.852 145.862 L 115.703 159.267 118.102 161.112 C 120.258 162.769,122.655 162.958,141.820 162.978 L 163.139 163.000 169.589 157.250 L 176.039 151.500 175.769 139.500 L 175.500 127.500 151.071 127.500 C 132.158 127.500,126.345 127.798,125.321 128.821 M180.500 127.833 C 179.899 128.434,179.820 148.000,180.418 148.000 C 183.513 148.000,184.000 146.513,184.000 137.060 C 184.000 129.081,183.731 127.333,182.500 127.333 C 181.675 127.333,180.775 127.558,180.500 127.833 M188.000 136.270 L 188.000 143.717 196.652 140.243 C 208.956 135.302,216.740 134.651,211.500 139.000 C 210.418 139.898,210.000 142.273,210.000 147.515 C 210.000 153.056,210.357 154.923,211.500 155.362 C 212.325 155.678,213.000 157.090,213.000 158.500 C 213.000 159.910,212.325 161.322,211.500 161.638 C 210.353 162.079,210.000 163.961,210.000 169.638 C 210.000 175.315,210.353 177.198,211.500 177.638 C 212.646 178.078,213.000 179.958,213.000 185.607 C 213.000 191.512,213.302 193.000,214.500 193.000 C 215.698 193.000,216.000 191.512,216.000 185.607 C 216.000 179.958,216.354 178.078,217.500 177.638 C 218.647 177.198,219.000 175.315,219.000 169.638 C 219.000 163.961,218.647 162.079,217.500 161.638 C 216.675 161.322,216.000 159.910,216.000 158.500 C 216.000 157.090,216.675 155.678,217.500 155.362 C 219.438 154.618,219.647 141.052,217.750 139.141 C 217.063 138.448,216.500 136.006,216.500 133.714 L 216.500 129.546 202.250 129.184 L 188.000 128.822 188.000 136.270 M997.500 132.730 C 993.993 134.252,988.592 135.596,984.500 135.965 C 977.700 136.577,977.580 136.635,980.297 137.979 C 982.777 139.207,983.860 139.117,989.868 137.182 C 993.593 135.982,997.412 135.000,998.352 135.000 C 1001.102 135.000,1001.362 137.683,998.943 141.080 L 996.699 144.231 999.099 142.964 C 1004.108 140.319,1013.043 132.643,1012.150 131.750 C 1010.094 129.694,1003.471 130.137,997.500 132.730 M563.506 136.990 C 563.149 137.568,563.973 139.368,565.338 140.989 C 566.702 142.611,568.572 146.206,569.493 148.978 C 571.240 154.239,573.201 156.000,577.312 156.000 C 582.351 156.000,584.192 148.828,580.450 143.771 C 576.909 138.986,565.175 134.289,563.506 136.990 M740.234 138.250 C 740.480 138.938,741.517 141.863,742.538 144.750 C 744.051 149.026,744.822 150.000,746.698 150.000 C 750.298 150.000,749.678 145.757,745.384 141.003 C 741.852 137.093,739.338 135.750,740.234 138.250 M1018.598 143.380 C 1015.559 145.541,1011.618 147.209,1007.672 148.006 C 1004.277 148.691,998.350 150.731,994.500 152.539 C 985.403 156.811,968.997 162.984,966.715 162.993 C 965.733 162.997,963.820 162.273,962.465 161.385 C 959.396 159.374,959.317 160.702,962.250 165.008 C 966.770 171.646,968.653 171.536,980.500 163.947 C 989.915 157.916,996.467 154.858,998.393 155.597 C 1000.221 156.299,1001.002 160.585,1000.992 169.875 C 1000.985 177.685,999.533 192.745,998.463 196.116 C 997.723 198.448,992.620 198.639,985.432 196.604 C 982.719 195.836,978.553 194.925,976.174 194.580 C 973.795 194.234,969.195 192.613,965.953 190.976 C 959.580 187.759,959.000 187.579,959.000 188.816 C 959.000 189.905,965.758 193.651,971.156 195.554 C 973.545 196.396,980.066 199.787,985.647 203.089 C 991.228 206.391,997.371 209.348,999.298 209.661 C 1002.315 210.151,1003.048 209.856,1004.562 207.546 C 1007.548 202.988,1008.094 195.704,1006.359 183.561 C 1005.489 177.478,1004.450 170.025,1004.048 167.000 C 1003.646 163.975,1002.796 160.233,1002.159 158.685 C 1000.253 154.054,1000.714 152.295,1004.149 151.098 C 1011.239 148.626,1015.512 151.092,1010.858 154.969 C 1008.138 157.235,1009.647 157.734,1012.559 155.532 C 1013.715 154.658,1016.772 154.051,1020.115 154.032 C 1024.189 154.009,1026.431 153.449,1028.284 151.991 C 1029.689 150.886,1032.234 149.703,1033.940 149.362 C 1039.770 148.196,1038.780 145.316,1031.391 141.950 C 1025.572 139.300,1024.107 139.463,1018.598 143.380 M216.808 147.336 C 217.098 151.868,216.979 152.135,214.808 151.827 C 213.004 151.571,212.430 150.770,212.180 148.155 C 211.756 143.738,212.600 141.777,214.747 142.185 C 216.074 142.437,216.575 143.688,216.808 147.336 M459.953 153.092 C 458.478 155.983,457.040 157.139,453.355 158.395 C 450.764 159.278,447.122 160.000,445.263 160.000 C 443.014 160.000,442.115 160.376,442.577 161.125 C 443.034 161.864,445.646 162.079,450.194 161.754 C 457.352 161.242,460.000 162.281,460.000 165.605 C 460.000 167.237,456.165 174.933,453.108 179.438 C 449.007 185.479,454.037 184.873,459.728 178.640 C 461.806 176.363,464.630 172.363,466.002 169.750 C 467.931 166.077,469.064 164.983,470.998 164.923 C 479.680 164.656,484.730 160.392,482.827 154.933 C 481.244 150.392,479.531 149.649,470.349 149.517 L 461.839 149.396 459.953 153.092 M722.008 149.641 C 722.020 150.766,735.516 156.289,744.881 159.000 C 753.108 161.382,760.451 165.540,773.027 174.935 C 782.096 181.712,788.123 184.943,791.761 184.978 C 793.004 184.990,798.021 182.526,802.910 179.502 C 807.798 176.478,813.738 173.180,816.108 172.173 C 819.559 170.708,820.024 170.239,818.439 169.825 C 817.350 169.540,813.769 169.982,810.480 170.807 C 805.527 172.050,803.117 172.109,796.448 171.154 C 792.020 170.519,786.998 170.000,785.289 170.000 C 783.556 170.000,777.743 167.778,772.150 164.978 C 758.420 158.105,721.982 146.959,722.008 149.641 M28.750 163.728 C 24.842 164.137,24.369 165.043,25.622 169.717 C 26.302 172.253,29.518 173.644,31.298 172.171 C 31.959 171.624,33.850 171.025,35.500 170.838 C 38.172 170.537,38.534 170.090,38.810 166.750 C 39.153 162.611,39.225 162.633,28.750 163.728 M257.350 165.403 L 260.200 167.735 256.850 168.969 C 252.550 170.552,254.871 171.528,259.391 170.036 C 261.265 169.417,263.969 169.205,265.399 169.564 C 267.029 169.973,268.000 169.803,268.000 169.108 C 268.000 168.499,267.213 167.998,266.250 167.995 C 265.288 167.992,262.700 166.881,260.500 165.526 C 255.443 162.412,253.605 162.340,257.350 165.403 M37.000 167.073 C 37.000 169.636,33.690 169.345,33.188 166.739 C 32.957 165.539,33.496 165.000,34.927 165.000 C 36.358 165.000,37.000 165.642,37.000 167.073 M216.805 169.750 C 216.549 173.732,216.177 174.500,214.500 174.500 C 212.962 174.500,212.426 173.727,212.180 171.155 C 211.750 166.669,212.521 165.000,215.023 165.000 C 216.888 165.000,217.077 165.504,216.805 169.750 M31.426 167.667 C 31.778 168.584,31.631 169.769,31.100 170.300 C 29.627 171.773,27.000 170.319,27.000 168.031 C 27.000 165.523,30.493 165.236,31.426 167.667 M124.000 171.000 L 124.000 174.000 144.000 174.000 L 164.000 174.000 164.000 171.000 L 164.000 168.000 144.000 168.000 L 124.000 168.000 124.000 171.000 M252.228 179.000 C 251.267 182.786,252.363 184.824,253.611 181.572 C 254.085 180.336,254.788 180.335,258.829 181.561 C 264.238 183.202,266.348 183.371,265.562 182.100 C 265.256 181.606,262.755 180.661,260.003 180.001 C 256.175 179.082,255.000 178.354,255.000 176.900 C 255.000 173.559,253.278 174.863,252.228 179.000 M34.310 177.848 C 27.887 179.892,27.652 180.138,28.484 183.928 C 29.353 187.884,31.458 188.040,30.668 184.090 C 30.250 181.999,30.521 181.014,31.633 180.587 C 33.727 179.784,35.000 180.718,35.000 183.059 C 35.000 184.127,35.486 185.000,36.079 185.000 C 36.759 185.000,36.915 183.887,36.500 182.000 C 35.933 179.417,36.130 179.000,37.921 179.000 C 39.312 179.000,40.000 179.642,40.000 180.941 C 40.000 182.779,41.670 184.663,42.534 183.799 C 43.100 183.234,40.790 175.979,40.082 176.098 C 39.762 176.152,37.164 176.939,34.310 177.848 M119.066 182.225 C 117.357 184.549,116.193 187.061,116.479 187.807 C 116.766 188.553,117.000 189.577,117.000 190.082 C 117.000 190.617,128.270 191.000,144.000 191.000 L 171.000 191.000 171.000 188.441 C 171.000 187.034,169.575 184.109,167.833 181.941 L 164.665 178.000 143.419 178.000 L 122.173 178.000 119.066 182.225 M250.000 187.040 C 250.000 188.142,255.309 190.482,260.107 191.494 C 262.527 192.005,263.205 191.900,262.473 191.128 C 260.966 189.540,250.000 185.946,250.000 187.040 M37.250 190.122 C 34.363 191.232,32.000 192.543,32.000 193.036 C 32.000 193.956,42.744 190.329,44.450 188.833 C 46.078 187.406,42.781 187.996,37.250 190.122 M247.040 194.452 C 245.516 196.288,246.016 198.981,248.128 200.311 C 249.355 201.083,250.433 200.805,252.496 199.182 C 254.002 197.997,255.632 197.273,256.118 197.573 C 257.729 198.568,257.030 201.179,255.011 201.707 C 253.095 202.208,253.132 204.000,255.059 204.000 C 256.299 204.000,260.000 200.272,260.000 199.023 C 260.000 198.486,258.851 197.294,257.448 196.374 C 255.021 194.784,254.752 194.807,251.988 196.851 C 248.404 199.500,248.000 199.515,248.000 197.000 C 248.000 195.889,248.667 195.000,249.500 195.000 C 250.325 195.000,251.000 194.550,251.000 194.000 C 251.000 192.501,248.414 192.796,247.040 194.452 M111.000 202.987 L 111.000 211.000 144.542 211.000 L 178.084 211.000 177.792 203.250 L 177.500 195.500 144.250 195.237 L 111.000 194.973 111.000 202.987 M34.676 198.403 C 34.380 199.174,34.724 200.608,35.440 201.588 C 36.677 203.279,36.966 203.283,41.122 201.675 C 46.591 199.559,48.621 198.288,47.818 197.485 C 47.475 197.141,45.307 197.823,43.000 199.000 C 38.362 201.366,34.869 201.068,37.010 198.488 C 38.011 197.282,37.958 197.000,36.729 197.000 C 35.896 197.000,34.972 197.631,34.676 198.403 M45.984 205.027 C 44.068 206.142,41.713 207.320,40.750 207.644 C 39.035 208.221,38.271 210.012,39.750 209.987 C 41.292 209.962,52.438 203.059,50.984 203.030 C 50.151 203.014,47.901 203.912,45.984 205.027 M240.807 206.750 C 237.872 210.168,238.054 210.735,243.091 213.866 C 248.708 217.357,251.807 218.022,248.108 214.942 C 245.186 212.508,245.956 211.521,250.535 211.829 C 252.441 211.958,254.000 211.599,254.000 211.031 C 254.000 210.464,252.722 210.000,251.161 210.000 C 249.102 210.000,248.008 209.312,247.182 207.500 C 245.856 204.590,242.955 204.249,240.807 206.750 M245.444 207.910 C 246.087 208.950,245.111 212.008,244.143 211.985 C 242.388 211.943,241.003 210.156,241.573 208.670 C 242.263 206.872,244.528 206.427,245.444 207.910 M48.237 211.527 C 45.356 213.466,43.000 215.545,43.000 216.145 C 43.000 216.746,44.545 216.059,46.433 214.619 C 51.197 210.985,51.591 211.317,48.589 216.438 C 47.159 218.878,46.365 221.108,46.825 221.392 C 47.883 222.046,58.000 215.297,58.000 213.937 C 58.000 213.382,56.338 214.057,54.307 215.437 C 52.276 216.818,50.443 217.776,50.235 217.568 C 50.026 217.360,51.013 215.355,52.428 213.114 C 56.486 206.686,55.807 206.428,48.237 211.527 M233.171 217.318 C 231.977 218.589,231.000 220.124,231.000 220.729 C 231.000 221.334,233.256 223.486,236.013 225.510 L 241.026 229.189 242.980 226.845 C 245.149 224.241,245.490 223.000,244.035 223.000 C 243.505 223.000,242.561 223.952,241.938 225.117 C 240.931 226.998,240.638 227.067,239.305 225.733 C 238.142 224.570,238.051 223.772,238.902 222.182 C 240.630 218.954,240.197 218.466,237.693 220.819 C 234.571 223.751,232.356 221.912,234.701 218.334 C 236.821 215.098,235.857 214.459,233.171 217.318 M126.559 221.532 C 124.932 222.762,124.882 223.000,126.249 223.000 C 127.397 223.000,127.995 224.110,128.272 226.750 C 128.594 229.835,128.694 229.569,128.832 225.250 C 128.924 222.363,128.888 220.014,128.750 220.032 C 128.613 220.049,127.626 220.724,126.559 221.532 M136.433 221.109 C 135.141 223.198,135.176 227.902,136.491 228.993 C 139.015 231.087,140.972 229.060,140.677 224.656 C 140.395 220.441,138.054 218.485,136.433 221.109 M146.105 221.373 C 144.568 223.226,145.768 226.000,148.107 226.000 C 149.148 226.000,150.000 226.450,150.000 227.000 C 150.000 227.550,149.010 228.000,147.800 228.000 C 146.287 228.000,145.922 228.322,146.633 229.033 C 147.201 229.601,148.416 229.778,149.333 229.426 C 151.592 228.559,151.660 221.467,149.418 220.607 C 147.338 219.809,147.419 219.790,146.105 221.373 M157.200 221.200 C 154.090 224.310,157.225 231.718,160.500 229.000 C 162.625 227.236,162.359 224.907,159.959 224.279 C 157.841 223.725,157.831 221.290,159.949 221.775 C 160.609 221.926,160.864 221.588,160.515 221.025 C 159.682 219.677,158.670 219.730,157.200 221.200 M56.646 223.452 C 53.134 226.707,53.061 231.160,56.490 232.995 C 58.658 234.155,59.237 234.096,60.958 232.538 C 62.497 231.146,62.710 230.326,61.918 228.846 C 61.358 227.800,60.465 227.213,59.934 227.541 C 59.402 227.869,59.226 228.557,59.543 229.069 C 60.641 230.847,58.979 232.059,56.939 230.968 C 54.354 229.584,54.495 227.823,57.411 225.084 C 60.312 222.359,63.380 222.682,63.820 225.760 C 64.195 228.390,65.520 228.694,66.417 226.355 C 67.244 224.201,64.299 221.000,61.491 221.000 C 60.282 221.000,58.101 222.104,56.646 223.452 M139.000 222.500 C 139.000 223.325,138.550 224.000,138.000 224.000 C 137.450 224.000,137.000 223.325,137.000 222.500 C 137.000 221.675,137.450 221.000,138.000 221.000 C 138.550 221.000,139.000 221.675,139.000 222.500 M150.000 223.500 C 150.000 224.325,149.325 225.000,148.500 225.000 C 147.675 225.000,147.000 224.325,147.000 223.500 C 147.000 222.675,147.675 222.000,148.500 222.000 C 149.325 222.000,150.000 222.675,150.000 223.500 M226.731 224.603 C 226.367 224.966,227.222 227.229,228.630 229.632 C 231.478 234.492,231.035 234.928,226.226 231.996 C 222.769 229.888,221.000 229.481,221.000 230.792 C 221.000 231.414,227.032 234.871,233.250 237.812 C 234.882 238.584,233.814 235.218,230.683 229.721 C 228.873 226.543,227.094 224.239,226.731 224.603 M139.500 226.833 C 139.500 228.642,137.543 228.312,137.154 226.438 C 136.939 225.395,137.313 224.938,138.154 225.218 C 138.895 225.465,139.500 226.192,139.500 226.833 M160.264 225.598 C 161.166 226.499,159.925 229.071,158.895 228.435 C 158.403 228.131,158.000 227.234,158.000 226.441 C 158.000 224.968,159.191 224.525,160.264 225.598 M218.834 236.750 C 221.346 240.255,225.854 244.480,226.448 243.885 C 227.092 243.242,219.057 234.000,217.854 234.000 C 217.309 234.000,217.750 235.238,218.834 236.750 M212.000 237.656 C 212.000 238.016,213.148 239.816,214.551 241.656 C 217.498 245.519,216.603 245.878,211.514 242.876 C 209.535 241.708,207.634 241.033,207.291 241.376 C 206.948 241.719,208.411 244.531,210.542 247.625 C 212.673 250.719,214.584 252.749,214.788 252.135 C 214.993 251.521,214.218 249.821,213.066 248.357 C 211.914 246.893,211.131 245.536,211.325 245.342 C 211.519 245.148,213.519 245.998,215.769 247.231 C 218.020 248.464,220.157 249.176,220.520 248.814 C 220.882 248.452,219.324 245.645,217.057 242.578 C 213.146 237.283,212.000 236.168,212.000 237.656 M84.500 246.520 C 81.429 251.102,79.000 252.330,79.000 249.300 C 79.000 248.034,78.711 247.889,77.867 248.733 C 76.259 250.341,77.562 253.000,79.959 253.000 C 81.767 253.000,88.905 244.886,88.975 242.750 C 89.036 240.903,87.264 242.397,84.500 246.520 M200.000 245.374 C 200.000 245.580,201.169 247.840,202.598 250.397 C 205.093 254.861,205.255 258.000,202.990 258.000 C 202.400 258.000,200.489 255.703,198.744 252.895 C 196.998 250.087,195.402 248.293,195.198 248.907 C 194.793 250.122,199.399 258.510,201.021 259.513 C 202.640 260.514,205.850 259.047,206.497 257.010 C 207.155 254.936,202.594 245.000,200.983 245.000 C 200.442 245.000,200.000 245.168,200.000 245.374 M89.274 251.480 C 87.543 254.494,86.484 257.181,86.920 257.451 C 87.357 257.721,89.016 255.597,90.607 252.731 C 94.302 246.076,94.332 246.000,93.294 246.000 C 92.814 246.000,91.005 248.466,89.274 251.480 M96.143 255.060 C 92.105 259.749,91.032 262.879,94.428 260.060 C 96.590 258.265,100.310 259.706,99.685 262.096 C 99.411 263.143,99.587 264.000,100.075 264.000 C 101.043 264.000,101.565 262.013,102.507 254.750 C 103.324 248.450,101.771 248.525,96.143 255.060 M504.479 253.030 C 497.723 254.425,493.000 260.585,493.000 268.000 C 493.000 272.566,495.918 278.806,499.121 281.086 C 503.671 284.326,511.525 284.650,516.960 281.821 L 521.419 279.500 521.460 273.500 L 521.500 267.500 515.000 267.500 C 508.960 267.500,508.492 267.659,508.387 269.750 C 508.287 271.715,508.763 272.000,512.137 272.000 C 515.296 272.000,516.000 272.354,516.000 273.943 C 516.000 277.959,508.564 280.443,503.945 277.970 C 496.684 274.085,498.071 259.241,505.854 257.532 C 508.955 256.851,514.479 258.936,515.185 261.054 C 515.602 262.307,521.000 261.280,521.000 259.947 C 521.000 259.488,519.961 257.903,518.690 256.426 C 516.150 253.473,509.744 251.942,504.479 253.030 M624.753 252.982 C 617.932 254.260,614.000 259.959,614.000 268.567 C 614.000 274.829,616.300 279.239,620.922 281.836 C 627.573 285.574,634.526 284.373,639.970 278.546 C 641.976 276.399,642.509 274.644,642.807 269.201 C 643.122 263.439,642.840 262.010,640.799 259.000 C 637.265 253.789,631.662 251.688,624.753 252.982 M685.942 252.951 C 680.943 254.463,678.806 256.214,676.937 260.331 C 671.806 271.631,677.477 282.737,688.878 283.714 C 695.295 284.265,699.881 281.727,702.750 276.038 C 705.558 270.469,705.602 265.874,702.898 260.288 C 699.983 254.268,692.415 250.992,685.942 252.951 M754.000 252.934 C 746.403 254.450,742.714 259.571,742.714 268.603 C 742.714 281.373,754.561 287.573,767.358 281.500 C 770.987 279.778,771.000 279.749,771.000 273.386 L 771.000 267.000 764.500 267.000 C 758.233 267.000,758.000 267.090,758.000 269.500 C 758.000 271.690,758.433 272.000,761.500 272.000 C 764.503 272.000,765.000 272.332,765.000 274.339 C 765.000 279.103,755.598 280.688,751.521 276.612 C 746.532 271.623,747.454 261.368,753.156 258.419 C 756.808 256.531,761.419 257.332,763.431 260.205 C 764.506 261.740,765.505 262.090,767.432 261.606 C 768.844 261.252,770.000 260.486,770.000 259.904 C 770.000 258.070,764.242 253.000,762.159 253.000 C 761.061 253.000,759.564 252.828,758.832 252.618 C 758.099 252.408,755.925 252.550,754.000 252.934 M971.334 252.731 C 967.337 253.215,963.000 257.163,963.000 260.317 C 963.000 264.145,966.622 267.810,971.976 269.400 C 980.999 272.080,982.818 274.039,979.429 277.429 C 976.135 280.722,968.000 278.327,968.000 274.063 C 968.000 273.166,967.177 272.990,965.252 273.473 C 961.602 274.389,961.615 274.356,963.443 277.890 C 965.705 282.263,970.222 284.329,976.255 283.750 C 982.650 283.135,986.400 279.678,986.400 274.398 C 986.400 269.748,982.999 266.637,975.549 264.471 C 968.983 262.562,967.261 260.882,969.537 258.606 C 971.775 256.368,976.657 256.577,978.732 259.000 C 979.682 260.109,981.682 261.000,983.222 261.000 C 986.385 261.000,986.399 260.971,984.870 257.615 C 983.279 254.123,977.387 251.997,971.334 252.731 M100.985 254.250 C 100.958 256.408,99.274 258.287,98.047 257.529 C 97.191 257.000,97.339 256.283,98.590 254.901 C 100.609 252.669,101.005 252.562,100.985 254.250 M348.297 267.997 L 348.500 282.995 358.168 282.997 C 369.485 283.000,370.594 282.686,372.537 278.928 C 374.646 274.850,374.350 272.259,371.440 269.349 C 369.100 267.009,369.014 266.642,370.440 265.066 C 372.935 262.310,372.414 257.471,369.365 255.073 C 367.128 253.313,365.325 253.000,357.413 253.000 L 348.095 253.000 348.297 267.997 M381.000 268.000 L 381.000 283.000 392.500 283.000 C 403.257 283.000,404.000 282.873,404.000 281.039 C 404.000 279.262,403.177 279.051,395.250 278.789 L 386.500 278.500 386.193 274.250 L 385.885 270.000 393.943 270.000 C 401.870 270.000,402.000 269.960,402.000 267.500 C 402.000 265.042,401.867 265.000,394.000 265.000 L 386.000 265.000 386.000 261.500 L 386.000 258.000 394.500 258.000 C 402.900 258.000,403.000 257.971,403.000 255.500 L 403.000 253.000 392.000 253.000 L 381.000 253.000 381.000 268.000 M410.000 268.000 L 410.000 283.000 413.000 283.000 L 416.000 283.000 416.000 268.000 L 416.000 253.000 413.000 253.000 L 410.000 253.000 410.000 268.000 M435.000 264.811 C 435.000 274.032,434.669 277.030,433.548 277.960 C 431.474 279.682,428.665 278.866,427.500 276.204 C 426.025 272.833,421.376 273.483,421.805 277.000 C 422.518 282.843,429.864 285.673,436.035 282.482 C 439.840 280.514,440.500 277.858,440.500 264.500 L 440.500 253.500 437.750 253.184 L 435.000 252.867 435.000 264.811 M449.000 268.361 L 449.000 283.723 451.500 283.245 L 454.000 282.767 454.000 267.883 L 454.000 253.000 451.500 253.000 L 449.000 253.000 449.000 268.361 M462.000 268.000 L 462.000 283.000 464.500 283.000 C 466.991 283.000,467.000 282.967,467.000 273.500 C 467.000 268.275,467.348 264.000,467.773 264.000 C 468.198 264.000,469.348 265.491,470.329 267.313 C 471.310 269.135,474.000 273.522,476.307 277.063 C 479.979 282.700,480.842 283.461,483.250 283.184 L 486.000 282.867 486.000 267.934 L 486.000 253.000 483.500 253.000 C 481.009 253.000,481.000 253.033,481.000 262.500 C 481.000 267.725,480.600 272.000,480.111 272.000 C 479.622 272.000,476.635 267.725,473.474 262.500 C 468.362 254.050,467.410 253.000,464.863 253.000 L 462.000 253.000 462.000 268.000 M556.000 264.309 C 556.000 277.208,555.058 279.733,550.656 278.628 C 548.899 278.188,548.000 277.291,548.000 275.981 C 548.000 274.447,547.324 274.000,545.000 274.000 C 540.992 274.000,540.959 277.112,544.923 281.077 C 548.335 284.489,552.641 284.916,557.097 282.284 C 560.698 280.157,560.692 280.177,561.507 265.250 L 562.175 253.000 559.088 253.000 L 556.000 253.000 556.000 264.309 M569.000 268.000 L 569.000 283.000 572.000 283.000 L 575.000 283.000 575.000 268.000 L 575.000 253.000 572.000 253.000 L 569.000 253.000 569.000 268.000 M585.979 267.135 C 582.966 274.909,580.350 281.659,580.167 282.135 C 579.983 282.611,581.192 283.000,582.852 283.000 C 585.394 283.000,586.070 282.448,587.136 279.500 C 588.377 276.069,588.512 276.000,593.951 276.015 C 600.476 276.033,601.609 276.594,602.529 280.260 C 603.105 282.556,603.753 283.000,606.525 283.000 L 609.833 283.000 603.804 268.000 C 597.818 253.105,597.753 253.000,594.617 253.000 C 591.479 253.000,591.421 253.095,585.979 267.135 M647.775 253.558 C 647.469 253.865,647.446 254.990,647.725 256.058 C 648.131 257.608,649.118 258.000,652.617 258.000 L 657.000 258.000 657.000 270.500 L 657.000 283.000 660.082 283.000 L 663.163 283.000 662.832 270.499 L 662.500 257.997 667.250 257.999 C 671.650 258.000,672.000 257.816,672.000 255.500 L 672.000 253.000 660.167 253.000 C 653.658 253.000,648.082 253.251,647.775 253.558 M711.000 267.937 L 711.000 283.000 713.500 283.000 C 715.863 283.000,716.006 282.686,716.116 277.250 C 716.180 274.088,716.197 269.813,716.155 267.750 C 716.113 265.688,716.398 264.004,716.789 264.009 C 717.180 264.014,720.106 268.289,723.292 273.509 C 728.505 282.053,729.378 283.000,732.042 283.000 L 735.000 283.000 735.000 268.000 L 735.000 253.000 732.535 253.000 C 730.094 253.000,730.067 253.099,729.785 263.250 L 729.500 273.500 723.440 263.500 C 717.995 254.513,717.057 253.468,714.190 253.187 L 711.000 252.873 711.000 267.937 M794.000 265.066 C 794.000 271.796,794.478 278.024,795.080 279.150 C 797.488 283.650,807.768 285.432,813.111 282.276 C 816.946 280.010,817.988 275.954,817.994 263.250 L 818.000 253.000 815.000 253.000 L 812.000 253.000 812.000 264.429 C 812.000 273.485,811.674 276.183,810.429 277.429 C 808.756 279.102,804.334 279.499,802.232 278.164 C 800.143 276.839,799.000 271.035,799.000 261.757 C 799.000 253.083,798.976 253.000,796.500 253.000 L 794.000 253.000 794.000 265.066 M826.000 268.000 L 826.000 283.000 828.846 283.000 L 831.692 283.000 831.530 273.945 C 831.441 268.965,831.633 264.727,831.958 264.526 C 832.282 264.326,835.143 268.400,838.315 273.581 C 843.502 282.051,844.381 283.000,847.042 283.000 L 850.000 283.000 850.000 268.000 L 850.000 253.000 847.535 253.000 C 845.094 253.000,845.067 253.099,844.785 263.250 L 844.500 273.500 838.160 263.250 C 832.470 254.051,831.521 253.000,828.910 253.000 L 826.000 253.000 826.000 268.000 M858.000 268.000 L 858.000 283.000 861.000 283.000 L 864.000 283.000 864.000 268.000 L 864.000 253.000 861.000 253.000 L 858.000 253.000 858.000 268.000 M873.606 267.562 C 876.573 275.571,879.000 282.321,879.000 282.562 C 879.000 282.803,880.506 283.000,882.347 283.000 L 885.693 283.000 890.847 268.736 C 893.681 260.891,896.000 254.141,896.000 253.736 C 896.000 253.331,894.743 253.000,893.206 253.000 C 890.577 253.000,890.245 253.515,887.574 261.750 C 886.013 266.563,884.311 271.625,883.791 273.000 L 882.845 275.500 881.581 272.500 C 880.886 270.850,879.058 265.788,877.519 261.250 C 874.782 253.180,874.649 253.000,871.467 253.000 L 868.213 253.000 873.606 267.562 M901.054 268.000 L 900.927 283.000 912.464 283.000 C 923.254 283.000,924.000 282.873,924.000 281.040 C 924.000 279.276,923.178 279.052,915.750 278.790 L 907.500 278.500 907.195 274.293 L 906.889 270.086 914.695 269.793 C 921.924 269.522,922.524 269.334,922.820 267.250 C 923.128 265.076,922.866 265.000,915.070 265.000 L 907.000 265.000 907.000 261.500 L 907.000 258.000 915.500 258.000 C 923.900 258.000,924.000 257.971,924.000 255.500 L 924.000 253.000 912.591 253.000 L 901.181 253.000 901.054 268.000 M931.000 268.000 L 931.000 283.000 934.000 283.000 C 936.997 283.000,937.000 282.993,937.000 277.059 C 937.000 273.791,937.412 270.863,937.916 270.552 C 939.966 269.285,944.136 272.235,947.539 277.361 C 950.550 281.895,951.719 282.865,954.575 283.199 C 956.459 283.418,958.000 283.431,958.000 283.227 C 958.000 282.153,952.705 274.043,950.991 272.492 C 948.691 270.411,948.422 269.000,950.326 269.000 C 952.512 269.000,956.000 264.555,956.000 261.767 C 956.000 254.939,952.472 253.000,940.050 253.000 L 931.000 253.000 931.000 268.000 M993.000 268.000 L 993.000 283.000 996.000 283.000 L 999.000 283.000 999.000 268.000 L 999.000 253.000 996.000 253.000 L 993.000 253.000 993.000 268.000 M1004.000 255.445 C 1004.000 257.650,1004.464 257.920,1008.716 258.195 L 1013.432 258.500 1013.290 270.750 L 1013.149 283.000 1016.075 283.000 L 1019.000 283.000 1019.000 270.500 L 1019.000 258.000 1023.500 258.000 C 1027.633 258.000,1028.000 257.796,1028.000 255.500 L 1028.000 253.000 1016.000 253.000 L 1004.000 253.000 1004.000 255.445 M1036.540 261.697 C 1041.656 269.846,1042.000 270.791,1042.000 276.697 L 1042.000 283.000 1045.000 283.000 L 1048.000 283.000 1048.000 276.696 C 1048.000 271.345,1048.475 269.644,1051.141 265.446 C 1052.868 262.726,1055.349 258.813,1056.653 256.750 L 1059.025 253.000 1055.711 253.000 C 1052.718 253.000,1052.063 253.575,1048.966 258.915 C 1047.079 262.169,1045.218 264.634,1044.829 264.394 C 1044.441 264.154,1042.712 261.492,1040.988 258.479 C 1038.160 253.536,1037.522 253.000,1034.466 253.000 L 1031.079 253.000 1036.540 261.697 M111.400 255.741 C 109.682 256.926,108.000 260.632,108.000 263.234 C 108.000 266.375,109.779 268.000,113.216 268.000 C 119.334 268.000,121.012 255.870,114.982 255.241 C 113.617 255.098,112.005 255.323,111.400 255.741 M116.800 260.078 C 116.968 261.526,116.251 263.703,115.164 265.045 C 113.504 267.096,113.000 267.245,111.615 266.095 C 108.420 263.444,110.484 256.644,114.318 257.189 C 115.815 257.402,116.594 258.309,116.800 260.078 M124.380 258.194 C 123.899 258.972,124.693 259.364,126.250 259.118 C 127.242 258.962,127.162 261.594,126.025 266.499 C 125.515 268.699,125.462 270.862,125.908 271.308 C 126.353 271.753,127.260 269.354,127.925 265.977 C 128.835 261.349,129.486 259.972,130.566 260.387 C 131.378 260.698,132.000 260.347,132.000 259.578 C 132.000 258.082,125.211 256.849,124.380 258.194 M167.243 258.157 C 165.331 260.069,165.767 265.434,168.073 268.365 C 170.486 271.434,173.028 271.732,175.307 269.213 C 177.368 266.936,176.466 263.000,173.883 263.000 C 171.579 263.000,171.403 264.557,173.613 265.405 C 174.919 265.906,174.990 266.307,173.990 267.512 C 171.223 270.846,167.576 267.507,168.188 262.201 C 168.451 259.922,168.940 259.531,171.316 259.697 C 173.119 259.824,173.990 259.464,173.739 258.697 C 173.190 257.026,168.744 256.656,167.243 258.157 M634.857 260.718 C 636.911 263.021,637.159 264.128,636.783 269.329 C 636.305 275.936,633.932 279.000,629.294 279.000 C 625.910 279.000,621.264 276.107,620.585 273.576 C 618.768 266.810,620.328 260.590,624.346 258.577 C 628.301 256.597,631.821 257.314,634.857 260.718 M695.648 259.122 C 697.994 261.070,699.191 267.577,698.010 271.963 C 695.054 282.940,681.000 280.387,681.000 268.874 C 681.000 264.031,683.341 259.217,686.302 257.974 C 688.840 256.908,693.699 257.506,695.648 259.122 M366.339 260.166 C 368.181 263.102,365.448 265.000,359.378 265.000 L 354.000 265.000 354.000 261.450 L 354.000 257.900 359.646 258.200 C 363.591 258.410,365.608 259.002,366.339 260.166 M949.827 260.805 C 950.361 264.571,948.312 266.000,942.378 266.000 L 937.000 266.000 937.000 261.952 L 937.000 257.905 943.250 258.202 C 948.910 258.472,949.531 258.717,949.827 260.805 M137.655 260.829 C 135.792 262.887,135.473 268.148,137.035 271.066 C 139.423 275.527,146.000 271.810,146.000 266.000 C 146.000 262.717,143.397 259.000,141.098 259.000 C 140.115 259.000,138.565 259.823,137.655 260.829 M151.758 259.750 C 150.968 261.395,152.246 273.000,153.217 273.000 C 153.869 273.000,154.017 271.510,153.616 269.000 C 152.794 263.859,153.866 263.940,157.000 269.258 L 159.500 273.500 159.804 267.612 C 160.190 260.139,158.856 256.646,158.043 263.000 L 157.467 267.500 155.213 263.250 C 152.926 258.936,152.403 258.407,151.758 259.750 M598.163 269.500 C 598.425 271.054,597.868 271.572,595.666 271.825 C 590.354 272.433,589.972 271.701,592.302 265.377 L 594.422 259.621 596.124 263.561 C 597.060 265.727,597.977 268.400,598.163 269.500 M142.800 262.200 C 144.186 263.586,144.363 267.879,143.115 269.848 C 142.645 270.590,141.414 271.036,140.380 270.840 C 138.126 270.413,137.217 264.648,139.054 262.435 C 140.505 260.687,141.241 260.641,142.800 262.200 M366.965 271.934 C 369.410 276.503,366.746 279.000,359.429 279.000 L 354.000 279.000 354.000 274.500 L 354.000 270.000 359.965 270.000 C 364.839 270.000,366.119 270.354,366.965 271.934 " stroke="none" fill="black" fill-rule="evenodd"/></svg>